<svg width="620" height="838" viewBox="0 0 620 838" fill="none" xmlns="http://www.w3.org/2000/svg">
<g opacity="0.85">
<path d="M93.3817 206.402C83.6886 200.628 61.5322 195.509 50.451 221.224C54.2201 254.399 66.9585 240.522 93.284 243.737C100.282 244.592 138.824 248.411 156.542 243.624C173.669 247.552 209.49 246.629 215.764 211.512C222.038 176.396 187.077 188.074 168.813 198.303C133.614 152.141 103.859 184.468 93.3817 206.402Z" fill="#D5FFFD" fill-opacity="0.85"/>
<path d="M380.537 732.064C362.08 721.07 319.893 711.322 298.793 760.287C305.97 823.455 330.225 797.032 380.351 803.154C393.676 804.781 467.063 812.053 500.8 802.939C533.41 810.418 601.617 808.659 613.563 741.795C625.509 674.931 558.941 697.167 524.164 716.643C457.142 628.747 400.487 690.3 380.537 732.064Z" fill="#D5FFFD" fill-opacity="0.85"/>
<path d="M496.685 401.998C506.378 396.224 528.534 391.105 539.615 416.821C535.846 449.996 523.108 436.118 496.782 439.334C489.784 440.188 451.242 444.008 433.524 439.221C416.398 443.148 380.576 442.225 374.302 407.109C368.029 371.993 402.989 383.671 421.254 393.899C456.453 347.738 486.207 380.065 496.685 401.998Z" fill="#D5FFFD" fill-opacity="0.85"/>
<path d="M132.165 606.681C116.799 552.713 49.6502 552.279 58.7058 614.042C5.29389 586.016 -18.3804 669.235 54.8278 662.354C94.0799 658.664 130.663 658.461 144.049 658.821C233.678 664.387 179.217 555.108 132.165 606.681Z" fill="#D5FFFD" fill-opacity="0.85"/>
<path d="M440.249 94.7912C419.64 22.4144 329.586 21.8322 341.731 104.662C270.1 67.0773 238.35 178.683 336.53 169.455C389.172 164.507 438.234 164.234 456.185 164.717C576.389 172.182 503.35 25.6256 440.249 94.7912Z" fill="#D5FFFD" fill-opacity="0.85"/>
</g>
</svg>
