<?xml version="1.0" encoding="UTF-8" standalone="no"?>
<!DOCTYPE svg PUBLIC "-//W3C//DTD SVG 1.1//EN" "http://www.w3.org/Graphics/SVG/1.1/DTD/svg11.dtd">
<svg width="100%" height="100%" viewBox="0 0 414 252" version="1.1" xmlns="http://www.w3.org/2000/svg" xmlns:xlink="http://www.w3.org/1999/xlink" xml:space="preserve" xmlns:serif="http://www.serif.com/" style="fill-rule:evenodd;clip-rule:evenodd;stroke-linecap:round;stroke-linejoin:round;stroke-miterlimit:1.5;">
    <g transform="matrix(1,0,0,1,-576.03938,-1544.648173)">
        <g transform="matrix(0.286915,0.575514,-0.404236,0.201527,1208.700083,793.812149)">
            <path d="M845.624,1608.63L838.525,1608.63L885.418,1403.1L933.557,1609.82L1046.716,1550.817L991.677,1663.987L838.54,1608.641L845.624,1608.63Z"/>
        </g>
        <g transform="matrix(1,0,0,1,-79.729877,-1.030987)">
            <circle cx="781.693" cy="1671.603" r="123.84" style="fill:rgb(208,189,172);stroke:rgb(161,119,94);stroke-width:4.17px;"/>
        </g>
        <g transform="matrix(1,0,0,1,-0.187683,0)">
            <circle cx="755.819" cy="1617.662" r="19.787" style="stroke:rgb(161,119,94);stroke-width:4.17px;"/>
        </g>
        <g transform="matrix(0.567927,-0.31059,0.262629,0.480229,-30.072073,1154.689324)">
            <path d="M928.515,1577.559C925.278,1577.559 922.65,1574.931 922.65,1571.694C922.65,1568.457 925.278,1565.829 928.515,1565.829L1029.689,1565.829L1029.689,1565.849C1029.852,1565.835 1030.017,1565.829 1030.183,1565.829C1033.421,1565.829 1036.049,1568.457 1036.049,1571.694C1036.049,1574.931 1033.421,1577.559 1030.183,1577.559C1030.017,1577.559 1029.852,1577.552 1029.689,1577.538L1029.689,1577.559L928.515,1577.559Z" style="fill:rgb(234,141,133);"/>
        </g>
        <g transform="matrix(0.562465,0.320376,-0.270904,0.475611,813.542453,624.961565)">
            <path d="M928.515,1577.559C925.278,1577.559 922.65,1574.931 922.65,1571.694C922.65,1568.457 925.278,1565.829 928.515,1565.829L1029.689,1565.829L1029.689,1565.849C1029.852,1565.835 1030.017,1565.829 1030.183,1565.829C1033.421,1565.829 1036.049,1568.457 1036.049,1571.694C1036.049,1574.931 1033.421,1577.559 1030.183,1577.559C1030.017,1577.559 1029.852,1577.552 1029.689,1577.538L1029.689,1577.559L928.515,1577.559Z" style="fill:rgb(234,141,133);"/>
        </g>
        <g transform="matrix(0.647308,0,-0,0.547352,318.833778,785.237978)">
            <path d="M928.515,1577.559C925.278,1577.559 922.65,1574.931 922.65,1571.694C922.65,1568.457 925.278,1565.829 928.515,1565.829L1029.689,1565.829L1029.689,1565.849C1029.852,1565.835 1030.017,1565.829 1030.183,1565.829C1033.421,1565.829 1036.049,1568.457 1036.049,1571.694C1036.049,1574.931 1033.421,1577.559 1030.183,1577.559C1030.017,1577.559 1029.852,1577.552 1029.689,1577.538L1029.689,1577.559L928.515,1577.559Z" style="fill:rgb(234,141,133);"/>
        </g>
    </g>
</svg>
