<?xml version="1.0" encoding="UTF-8" standalone="no"?>
<!DOCTYPE svg PUBLIC "-//W3C//DTD SVG 1.1//EN" "http://www.w3.org/Graphics/SVG/1.1/DTD/svg11.dtd">
<svg width="100%" height="100%" viewBox="0 0 545 566" version="1.1" xmlns="http://www.w3.org/2000/svg" xmlns:xlink="http://www.w3.org/1999/xlink" xml:space="preserve" xmlns:serif="http://www.serif.com/" style="fill-rule:evenodd;clip-rule:evenodd;stroke-linecap:round;stroke-linejoin:round;stroke-miterlimit:1.5;">
    <g transform="matrix(1,0,0,1,-727.826,-717.214478)">
        <g transform="matrix(1,0,0,1,647.226002,618.764526)">
            <path d="M353.417,664.021L352.774,664.021C289.898,664.021 228.533,644.197 179.985,608.199C176.356,605.507 172.816,602.271 169.466,598.579L120.794,544.955C117.293,541.097 114.321,537.097 111.958,533.066C91.443,498.042 80.6,458.515 80.6,418.755L80.6,356.246C80.647,332.072 87.896,308.054 101.566,286.794L162.265,192.382C173.664,174.65 189.049,159.9 206.756,149.726C215.042,144.966 223.682,140.58 232.439,136.687C256.387,126.04 282.63,120.642 310.441,120.642L395.131,120.642C423.405,120.642 450.274,126.324 474.989,137.527C486.094,142.558 496.921,148.339 507.17,154.708C523.294,164.732 537.523,178.818 548.315,195.443L602.996,279.689C616.145,299.947 623.657,323.107 624.723,346.662C624.872,349.953 624.948,353.322 624.948,356.673L624.948,418.755C624.948,436.083 622.929,453.386 618.947,470.181C603.777,534.165 559.793,587.871 498.27,617.521L448.218,641.646C417.994,656.213 385.222,663.948 353.417,664.021Z" style="fill:rgb(54,54,54);"/>
        </g>
        <g transform="matrix(1,0,0,1,647.226002,618.764526)">
            <path d="M395.131,98.45L310.44,98.45C282.63,98.45 256.387,103.848 232.439,114.494C223.683,118.387 215.042,122.773 206.756,127.533C189.049,137.707 173.664,152.457 162.265,170.189L101.566,264.601C87.896,285.861 80.647,309.878 80.6,334.052L80.6,396.563C80.6,436.321 91.443,475.849 111.958,510.872C114.32,514.904 117.293,518.904 120.794,522.761L169.466,576.386C172.816,580.077 176.355,583.314 179.985,586.005C228.533,622.003 289.897,641.828 352.774,641.828L353.123,641.827L353.417,641.827C385.223,641.756 417.994,634.02 448.218,619.452L498.271,595.328C559.793,565.677 603.777,511.973 618.947,447.987C622.929,431.192 624.948,413.891 624.948,396.563L624.948,334.48C624.948,331.128 624.872,327.759 624.723,324.469C623.657,300.913 616.145,277.753 602.996,257.496L548.314,173.25C537.522,156.624 523.294,142.539 507.17,132.516C496.921,126.146 486.094,120.364 474.989,115.333C450.274,104.13 423.405,98.45 395.131,98.45ZM395.131,110.449C420.926,110.449 446.542,115.613 470.036,126.263C480.751,131.118 491.037,136.618 500.835,142.708C515.919,152.083 528.579,164.886 538.249,179.783L592.931,264.029C604.769,282.268 611.753,303.291 612.735,325.013C612.878,328.152 612.948,331.309 612.948,334.48L612.948,396.563C612.948,413.251 610.991,429.527 607.271,445.219C592.743,506.496 549.791,557.176 493.061,584.519L443.008,608.643C415.036,622.124 384.469,629.758 353.417,629.827C353.203,629.827 352.989,629.828 352.774,629.828C289.819,629.828 232.132,609.732 187.133,576.366C183.937,573.996 181.026,571.268 178.352,568.32L129.679,514.695C126.91,511.646 124.395,508.361 122.313,504.807C103.362,472.454 92.6,435.644 92.6,396.563L92.6,334.075C92.643,311.712 99.566,289.9 111.66,271.09L172.358,176.679C182.585,160.771 196.337,147.359 212.733,137.938C220.644,133.395 228.846,129.224 237.314,125.459C260.286,115.246 285.3,110.449 310.44,110.449L395.131,110.449Z" style="fill:rgb(38,19,1);fill-rule:nonzero;"/>
        </g>
        <g transform="matrix(1,0,0,1,647.226002,680.847534)">
            <path d="M612.735,325.012C611.753,303.291 604.768,282.267 592.93,264.029L538.249,179.784C528.579,164.886 515.919,152.083 500.834,142.708C491.037,136.618 480.75,131.118 470.036,126.262C446.541,115.614 420.925,110.45 395.13,110.45L310.44,110.45C285.3,110.45 260.286,115.246 237.314,125.458C228.845,129.223 220.643,133.394 212.733,137.938C196.336,147.36 182.584,160.771 172.357,176.678L111.66,271.089C99.565,289.9 92.643,311.711 92.6,334.075L92.6,334.48C92.6,357.723 96.41,380.164 103.479,401.343C108.397,416.082 116.364,429.623 126.807,441.128L191.464,512.364C200.241,522.033 210.603,530.159 222.179,536.202C260.562,556.238 305.158,567.745 352.774,567.745C360.006,567.745 367.167,567.476 374.249,566.952C391.458,565.681 408.262,561.134 423.807,553.642L515.834,509.287C532.269,501.366 547.189,490.453 559.073,476.61C592.855,437.26 612.948,387.976 612.948,334.48C612.948,331.309 612.877,328.152 612.735,325.012Z" style="fill:url(#_Linear1);"/>
        </g>
        <g transform="matrix(1,0,0,1,647.226002,618.764526)">
            <path d="M122.065,504.369C122.149,504.514 122.227,504.662 122.312,504.807C124.394,508.361 126.911,511.646 129.677,514.695L178.352,568.32C181.026,571.267 183.936,573.996 187.132,576.366C188.417,577.318 189.748,578.22 191.051,579.15L206.07,473.077L125.554,423.483L122.065,504.369Z" style="fill:url(#_Linear2);"/>
        </g>
        <g transform="matrix(1,0,0,1,647.226002,618.764526)">
            <path d="M125.554,423.483L96.03,334.479L92.6,334.479L92.6,396.563C92.6,435.469 103.272,472.121 122.065,504.369L125.554,423.483Z" style="fill:url(#_Linear3);"/>
        </g>
        <g transform="matrix(1,0,0,1,647.226002,618.764526)">
            <path d="M607.271,445.218C610.991,429.527 612.948,413.251 612.948,396.563L612.948,334.479L603.557,334.479C598.958,319.51 592.713,305.155 585.05,291.552L528.651,500.129L535.361,540.903L536.831,556.505C571.433,528.107 596.784,489.453 607.271,445.218Z" style="fill:url(#_Linear4);"/>
        </g>
        <g transform="matrix(1,0,0,1,647.226002,618.764526)">
            <path d="M528.651,500.129L378.458,540.129L382.432,614.839L383.507,627.334C404.085,624.089 424.143,617.735 443.008,608.643L493.06,584.519C508.313,577.167 522.526,568.079 535.503,557.601L528.651,500.129Z" style="fill:url(#_Linear5);"/>
        </g>
        <g transform="matrix(1,0,0,1,647.226002,618.764526)">
            <path d="M612.735,325.012C611.753,303.291 604.768,282.267 592.93,264.029L538.249,179.784C528.579,164.886 515.919,152.083 500.834,142.708C491.037,136.618 480.75,131.118 470.036,126.262C446.541,115.614 420.925,110.45 395.13,110.45L310.44,110.45C285.3,110.45 260.286,115.246 237.314,125.458C228.845,129.223 220.643,133.394 212.733,137.938C196.336,147.36 182.584,160.771 172.357,176.678L111.66,271.089C99.565,289.9 92.643,311.711 92.6,334.075L92.6,334.48C92.6,357.723 96.41,380.164 103.479,401.343C108.397,416.082 116.364,429.623 126.807,441.128L191.464,512.364C200.241,522.033 210.603,530.159 222.179,536.202C260.562,556.238 305.158,567.745 352.774,567.745C360.006,567.745 367.167,567.476 374.249,566.952C391.458,565.681 408.262,561.134 423.807,553.642L515.834,509.287C532.269,501.366 547.189,490.453 559.073,476.61C592.855,437.26 612.948,387.976 612.948,334.48C612.948,331.309 612.877,328.152 612.735,325.012Z" style="fill:url(#_Linear6);"/>
        </g>
        <g transform="matrix(1,0,0,1,647.226002,618.764526)">
            <path d="M612.876,331.315C612.131,383.638 592.214,431.813 559.074,470.417C547.19,484.26 532.269,495.172 515.835,503.094L423.807,547.448C408.262,554.941 391.458,559.487 374.249,560.759C367.167,561.282 360.006,561.551 352.774,561.551C305.159,561.551 260.562,550.045 222.179,530.009C210.603,523.965 200.242,515.84 191.464,506.17L126.807,434.935C116.365,423.43 108.398,409.889 103.479,395.15C96.802,375.143 93.075,354 92.679,332.129C92.665,332.779 92.602,333.424 92.601,334.075C92.6,334.21 92.6,334.345 92.6,334.48C92.6,357.723 96.41,380.164 103.479,401.344C107.987,414.849 115.079,427.327 124.264,438.177L124.264,459.226L128.427,442.915L191.464,512.363C192.702,513.726 194.04,514.983 195.338,516.282L195.069,516.155L195.069,550.193L202.466,522.83C208.549,527.956 215.104,532.509 222.179,536.202C260.562,556.238 305.159,567.744 352.774,567.744C360.006,567.744 367.167,567.476 374.249,566.952C375.271,566.876 376.287,566.751 377.306,566.652L382.432,614.839L382.432,566.066C396.774,564.128 410.738,559.941 423.807,553.643L515.835,509.287C519.635,507.455 523.341,505.446 526.961,503.296L526.903,503.354C527.706,509.223 528.627,515.248 529.683,521.419C530.919,528.647 532.263,535.629 533.685,542.354C533.271,534.323 532.84,526.27 532.393,518.193C532.067,512.292 531.732,506.403 531.391,500.528C541.677,493.885 551.075,485.928 559.074,476.61C592.855,437.26 612.948,387.976 612.948,334.48C612.948,333.42 612.892,332.372 612.876,331.315Z" style="fill:rgb(229,164,158);fill-rule:nonzero;"/>
        </g>
        <g transform="matrix(1,0,0,1,-506.088439,139.281046)">
            <g transform="matrix(1,0,0,1,8.610577,18.177832)">
                <g transform="matrix(1.190819,-0.032751,0.035398,1.287051,-333.513092,-122.839223)">
                    <path d="M1417.3,768.057C1417.3,768.057 1381.238,761.031 1386.495,815.516C1390.005,851.885 1496.821,858.402 1565.09,858.085C1594.579,857.948 1617.028,856.983 1620.547,855.704C1656.372,842.683 1662.264,791.515 1608.655,781.976" style="fill:rgb(71,33,23);stroke:rgb(71,33,23);stroke-width:2.42px;"/>
                </g>
                <g transform="matrix(0.872494,-0.023996,0.027493,0.999622,149.075726,37.524831)">
                    <path d="M1426.391,768.288C1426.391,768.288 1376.778,764.01 1386.495,815.516C1396.212,867.023 1608.374,858.462 1620.547,855.704C1666.164,845.368 1663.343,772.097 1596.754,783.309" style="fill:rgb(71,33,23);stroke:rgb(71,33,23);stroke-width:3.2px;"/>
                </g>
                <g transform="matrix(0.872494,-0.023996,0.027493,0.999622,149.075726,37.524831)">
                    <path d="M1470.956,686.141C1470.956,686.141 1364.072,742.2 1444.796,779.572C1444.796,779.572 1556.165,816.944 1592.79,787.046C1629.415,757.149 1582.841,727.976 1520.819,729.797C1468.338,731.337 1470.956,686.141 1470.956,686.141Z" style="fill:rgb(71,33,23);stroke:rgb(71,33,23);stroke-width:3.2px;"/>
                </g>
            </g>
            <g>
                <g transform="matrix(1.190819,-0.032751,0.035398,1.287051,-333.513092,-122.839223)">
                    <path d="M1417.3,768.057C1417.3,768.057 1381.238,761.031 1386.495,815.516C1390.005,851.885 1496.821,858.402 1565.09,858.085C1594.579,857.948 1617.028,856.983 1620.547,855.704C1656.372,842.683 1662.264,791.515 1608.655,781.976" style="fill:rgb(229,164,158);stroke:rgb(71,33,23);stroke-width:2.42px;"/>
                </g>
                <g transform="matrix(0.872494,-0.023996,0.027493,0.999622,149.075726,37.524831)">
                    <path d="M1426.391,768.288C1426.391,768.288 1376.778,764.01 1386.495,815.516C1396.212,867.023 1608.374,858.462 1620.547,855.704C1666.164,845.368 1663.343,772.097 1596.754,783.309" style="fill:rgb(229,164,158);stroke:rgb(71,33,23);stroke-width:3.2px;"/>
                </g>
                <g transform="matrix(0.872494,-0.023996,0.027493,0.999622,149.075726,37.524831)">
                    <path d="M1470.956,686.141C1470.956,686.141 1364.072,742.2 1444.796,779.572C1444.796,779.572 1556.165,816.944 1592.79,787.046C1629.415,757.149 1582.841,727.976 1520.819,729.797C1468.338,731.337 1470.956,686.141 1470.956,686.141Z" style="fill:rgb(229,164,158);stroke:rgb(71,33,23);stroke-width:3.2px;"/>
                </g>
            </g>
        </g>
    </g>
    <defs>
        <linearGradient id="_Linear1" x1="0" y1="0" x2="1" y2="0" gradientUnits="userSpaceOnUse" gradientTransform="matrix(-4.305938,302.571894,-302.571894,-4.305938,352.773998,261.159612)"><stop offset="0" style="stop-color:rgb(234,141,133);stop-opacity:1"/><stop offset="1" style="stop-color:rgb(172,101,95);stop-opacity:1"/></linearGradient>
        <linearGradient id="_Linear2" x1="0" y1="0" x2="1" y2="0" gradientUnits="userSpaceOnUse" gradientTransform="matrix(84.004898,0,0,84.004898,122.065,501.317)"><stop offset="0" style="stop-color:rgb(234,141,133);stop-opacity:1"/><stop offset="1" style="stop-color:rgb(172,101,95);stop-opacity:1"/></linearGradient>
        <linearGradient id="_Linear3" x1="0" y1="0" x2="1" y2="0" gradientUnits="userSpaceOnUse" gradientTransform="matrix(32.954102,0,0,32.954102,92.599898,419.424)"><stop offset="0" style="stop-color:rgb(172,101,95);stop-opacity:1"/><stop offset="0.5" style="stop-color:rgb(196,131,125);stop-opacity:1"/><stop offset="1" style="stop-color:rgb(234,141,133);stop-opacity:1"/></linearGradient>
        <linearGradient id="_Linear4" x1="0" y1="0" x2="1" y2="0" gradientUnits="userSpaceOnUse" gradientTransform="matrix(0.0005,-164.173518,164.173518,0.0005,570.799,556.505)"><stop offset="0" style="stop-color:rgb(172,101,95);stop-opacity:1"/><stop offset="1" style="stop-color:rgb(234,141,133);stop-opacity:1"/></linearGradient>
        <linearGradient id="_Linear5" x1="0" y1="0" x2="1" y2="0" gradientUnits="userSpaceOnUse" gradientTransform="matrix(157.046,0,0,157.046,378.457,563.731)"><stop offset="0" style="stop-color:rgb(172,101,95);stop-opacity:1"/><stop offset="1" style="stop-color:rgb(234,141,133);stop-opacity:1"/></linearGradient>
        <linearGradient id="_Linear6" x1="0" y1="0" x2="1" y2="0" gradientUnits="userSpaceOnUse" gradientTransform="matrix(-4.305938,302.571894,-302.571894,-4.305938,352.773998,261.159612)"><stop offset="0" style="stop-color:rgb(234,141,133);stop-opacity:1"/><stop offset="1" style="stop-color:rgb(172,101,95);stop-opacity:1"/></linearGradient>
    </defs>
</svg>
